<?xml version="1.0" encoding="UTF-8"?>
<svg width="900" height="600" viewBox="0 0 900 600" fill="none" xmlns="http://www.w3.org/2000/svg">
  <!-- Background Elements -->
  <circle cx="450" cy="300" r="250" fill="url(#purple-gradient)" fill-opacity="0.1"/>
  <circle cx="450" cy="300" r="200" fill="url(#purple-gradient)" fill-opacity="0.05"/>
  
  <!-- Dashboard Window -->
  <g filter="url(#shadow)">
    <rect x="250" y="150" width="400" height="300" rx="8" fill="white"/>
    
    <!-- Top Bar -->
    <rect x="250" y="150" width="400" height="40" rx="8" fill="#7C3AED"/>
    <circle cx="280" cy="170" r="6" fill="#FF6B6B"/>
    <circle cx="300" cy="170" r="6" fill="#FFD93D"/>
    <circle cx="320" cy="170" r="6" fill="#6BCB77"/>

    <!-- Sidebar -->
    <rect x="250" y="190" width="80" height="260" fill="#F8F9FA"/>
    <rect x="265" y="210" width="50" height="6" rx="3" fill="#7C3AED"/>
    <rect x="265" y="230" width="40" height="6" rx="3" fill="#E2E8F0"/>
    <rect x="265" y="250" width="45" height="6" rx="3" fill="#E2E8F0"/>
    
    <!-- Main Content -->
    <rect x="350" y="210" width="280" height="100" rx="4" fill="#F8FAFC"/>
    <rect x="365" y="225" width="100" height="8" rx="4" fill="#7C3AED"/>
    <rect x="365" y="245" width="250" height="6" rx="3" fill="#E2E8F0"/>
    <rect x="365" y="260" width="200" height="6" rx="3" fill="#E2E8F0"/>
    
    <rect x="350" y="330" width="130" height="100" rx="4" fill="#F8FAFC"/>
    <rect x="500" y="330" width="130" height="100" rx="4" fill="#F8FAFC"/>
  </g>

  <!-- People -->
  <g transform="translate(400, 500)">
    <!-- Person 1 -->
    <circle cx="0" cy="0" r="30" fill="#7C3AED"/>
    <circle cx="0" cy="-15" r="12" fill="white"/>
    <path d="M-15 5 A30 30 0 0 0 15 5" stroke="white" stroke-width="4"/>
    
    <!-- Person 2 -->
    <circle cx="60" cy="0" r="30" fill="#8B5CF6"/>
    <circle cx="60" cy="-15" r="12" fill="white"/>
    <path d="M45 5 A30 30 0 0 0 75 5" stroke="white" stroke-width="4"/>
  </g>

  <!-- Floating Elements -->
  <g>
    <circle cx="200" cy="200" r="10" fill="#7C3AED" fill-opacity="0.2"/>
    <circle cx="700" cy="400" r="15" fill="#8B5CF6" fill-opacity="0.2"/>
    <circle cx="650" cy="150" r="12" fill="#7C3AED" fill-opacity="0.2"/>
  </g>

  <!-- Gradients and Filters -->
  <defs>
    <linearGradient id="purple-gradient" x1="0%" y1="0%" x2="100%" y2="100%">
      <stop offset="0%" style="stop-color:#7C3AED"/>
      <stop offset="100%" style="stop-color:#8B5CF6"/>
    </linearGradient>
    
    <filter id="shadow" x="246" y="146" width="408" height="308" filterUnits="userSpaceOnUse" color-interpolation-filters="sRGB">
      <feFlood flood-opacity="0" result="BackgroundImageFix"/>
      <feColorMatrix in="SourceAlpha" values="0 0 0 0 0 0 0 0 0 0 0 0 0 0 0 0 0 0 127 0"/>
      <feOffset dy="4"/>
      <feGaussianBlur stdDeviation="4"/>
      <feColorMatrix values="0 0 0 0 0 0 0 0 0 0 0 0 0 0 0 0 0 0 0.1 0"/>
      <feBlend in2="BackgroundImageFix" result="effect1_dropShadow"/>
      <feBlend in="SourceGraphic" in2="effect1_dropShadow" result="shape"/>
    </filter>
  </defs>
</svg> 